<svg width="23" height="17" viewBox="0 0 23 17" fill="none" xmlns="http://www.w3.org/2000/svg">
<path d="M5.24995 0.75C5.24995 0.551088 5.17093 0.360322 5.03028 0.21967C4.88963 0.0790178 4.69886 0 4.49995 0C4.30104 0 4.11027 0.0790178 3.96962 0.21967C3.82897 0.360322 3.74995 0.551088 3.74995 0.75V13.9395L2.03095 12.219C1.89012 12.0782 1.69911 11.9991 1.49995 11.9991C1.30078 11.9991 1.10978 12.0782 0.968948 12.219C0.828118 12.3598 0.749001 12.5508 0.749001 12.75C0.749001 12.9492 0.828118 13.1402 0.968948 13.281L3.96895 16.2795L3.97945 16.29C4.12026 16.4273 4.30963 16.5034 4.5063 16.5017C4.70297 16.5 4.89101 16.4207 5.02945 16.281L8.02945 13.281C8.09918 13.2114 8.15451 13.1287 8.19229 13.0377C8.23006 12.9466 8.24955 12.8491 8.24962 12.7505C8.24968 12.652 8.23034 12.5544 8.1927 12.4633C8.15505 12.3722 8.09983 12.2895 8.0302 12.2197C7.96056 12.15 7.87788 12.0947 7.78686 12.0569C7.69584 12.0191 7.59827 11.9997 7.49973 11.9996C7.40118 11.9995 7.30359 12.0189 7.21252 12.0565C7.12144 12.0941 7.03868 12.1494 6.96895 12.219L5.24995 13.9395V0.75ZM10.4999 2.25C10.4999 2.05109 10.579 1.86032 10.7196 1.71967C10.8603 1.57902 11.051 1.5 11.2499 1.5H21.7499C21.9489 1.5 22.1396 1.57902 22.2803 1.71967C22.4209 1.86032 22.4999 2.05109 22.4999 2.25C22.4999 2.44891 22.4209 2.63968 22.2803 2.78033C22.1396 2.92098 21.9489 3 21.7499 3H11.2499C11.051 3 10.8603 2.92098 10.7196 2.78033C10.579 2.63968 10.4999 2.44891 10.4999 2.25ZM11.2499 6C11.051 6 10.8603 6.07902 10.7196 6.21967C10.579 6.36032 10.4999 6.55109 10.4999 6.75C10.4999 6.94891 10.579 7.13968 10.7196 7.28033C10.8603 7.42098 11.051 7.5 11.2499 7.5H18.7499C18.9489 7.5 19.1396 7.42098 19.2803 7.28033C19.4209 7.13968 19.4999 6.94891 19.4999 6.75C19.4999 6.55109 19.4209 6.36032 19.2803 6.21967C19.1396 6.07902 18.9489 6 18.7499 6H11.2499ZM11.2499 10.5C11.051 10.5 10.8603 10.579 10.7196 10.7197C10.579 10.8603 10.4999 11.0511 10.4999 11.25C10.4999 11.4489 10.579 11.6397 10.7196 11.7803C10.8603 11.921 11.051 12 11.2499 12H15.7499C15.9489 12 16.1396 11.921 16.2803 11.7803C16.4209 11.6397 16.4999 11.4489 16.4999 11.25C16.4999 11.0511 16.4209 10.8603 16.2803 10.7197C16.1396 10.579 15.9489 10.5 15.7499 10.5H11.2499ZM11.2499 15C11.051 15 10.8603 15.079 10.7196 15.2197C10.579 15.3603 10.4999 15.5511 10.4999 15.75C10.4999 15.9489 10.579 16.1397 10.7196 16.2803C10.8603 16.421 11.051 16.5 11.2499 16.5H12.7499C12.9489 16.5 13.1396 16.421 13.2803 16.2803C13.4209 16.1397 13.4999 15.9489 13.4999 15.75C13.4999 15.5511 13.4209 15.3603 13.2803 15.2197C13.1396 15.079 12.9489 15 12.7499 15H11.2499Z" fill="#DBDBDB"/>
</svg>
